<svg xmlns="http://www.w3.org/2000/svg" version="1.1" xmlns:xlink="http://www.w3.org/1999/xlink" xmlns:svgjs="http://svgjs.dev/svgjs" width="1440" height="560" preserveAspectRatio="none" viewBox="0 0 1440 560"><g mask="url(&quot;#SvgjsMask1015&quot;)" fill="none"><path d="M -71.70826040540226,258 C 24.29,286.2 216.29,424.6 408.29173959459774,399 C 600.29,373.4 696.29,125 888.2917395945977,130 C 1080.29,135 1176.29,409 1368.2917395945979,424 C 1560.29,439 1833.95,195.6 1848.2917395945979,205 C 1862.63,214.4 1521.66,417.8 1440,471" stroke="rgba(255, 255, 255, 1)" stroke-width="2"></path><path d="M -644.3709015075331,330 C -548.37,293.2 -356.37,153.8 -164.37090150753312,146 C 27.63,138.2 123.63,282 315.6290984924669,291 C 507.63,300 603.63,185.4 795.6290984924669,191 C 987.63,196.6 1146.75,341.2 1275.629098492467,319 C 1404.5,296.8 1407.13,127.8 1440,80" stroke="rgba(255, 255, 255, 1)" stroke-width="2"></path><path d="M -128.94065042424575,210 C -32.94,248.4 159.06,391 351.05934957575425,402 C 543.06,413 639.06,246 831.0593495757543,265 C 1023.06,284 1119.06,495.6 1311.0593495757544,497 C 1503.06,498.4 1765.27,298 1791.0593495757544,272 C 1816.85,246 1510.21,348 1440,367" stroke="rgba(255, 255, 255, 1)" stroke-width="2"></path><path d="M -555.2858134697742,314 C -459.29,295.2 -267.29,219.4 -75.28581346977424,220 C 116.71,220.6 212.71,321.4 404.7141865302258,317 C 596.71,312.6 692.71,170 884.7141865302258,198 C 1076.71,226 1253.66,465.6 1364.7141865302258,457 C 1475.77,448.4 1424.94,215.4 1440,155" stroke="rgba(255, 255, 255, 1)" stroke-width="2"></path><path d="M -863.5204678027644,170 C -767.52,235.4 -575.52,504.8 -383.5204678027644,497 C -191.52,489.2 -95.52,159.4 96.47953219723559,131 C 288.48,102.6 384.48,356.8 576.4795321972356,355 C 768.48,353.2 883.78,108.2 1056.4795321972356,122 C 1229.18,135.8 1363.3,363.6 1440,424" stroke="rgba(255, 255, 255, 1)" stroke-width="2"></path><path d="M -692.0750361048283,95 C -596.08,161.4 -404.08,432.2 -212.07503610482837,427 C -20.08,421.8 75.92,62.8 267.92496389517163,69 C 459.92,75.2 555.92,438.8 747.9249638951717,458 C 939.92,477.2 1089.51,185.6 1227.9249638951717,165 C 1366.34,144.4 1397.58,317 1440,355" stroke="rgba(255, 255, 255, 1)" stroke-width="2"></path></g><defs><mask id="SvgjsMask1015"><rect width="1440" height="560" fill="#ffffff"></rect></mask></defs></svg>