<svg xmlns="http://www.w3.org/2000/svg" version="1.1" xmlns:xlink="http://www.w3.org/1999/xlink" xmlns:svgjs="http://svgjs.dev/svgjs" width="2000" height="1010" preserveAspectRatio="none" viewBox="0 0 2000 1010"><g mask="url(&quot;#SvgjsMask1006&quot;)" fill="none"><path d="M253 0C253 0 253 0 253 0C379.5 25.3 395.79 -7.41 506 50.6C636.14 119.09 624.34 148.01 733.7 253C750.84 269.45 743 275.85 759 293.48C857.82 402.35 862.87 398.23 963.35 506C989.37 533.91 989.24 564.84 1012 564.84C1033.03 564.84 1033.24 536.51 1050.92 506C1123.6 380.59 1179.36 384.34 1192.71 253C1205.08 131.34 1079.85 78.8 1102.36 0C1115.99 -47.7 1183.68 0 1265 0C1391.5 0 1391.5 0 1518 0C1644.5 0 1644.5 0 1771 0C1897.5 0 1960.75 -63.25 2024 0C2087.25 63.25 2024 126.5 2024 253C2024 379.5 2024 379.5 2024 506C2024 632.5 2024 632.5 2024 759C2024 875.77 2032.84 879.47 2024 992.54C2022.95 1005.97 2017.68 1010.97 2004.23 1012C1891.18 1020.7 1887.61 1012 1771 1012C1644.5 1012 1644.5 1012 1518 1012C1391.5 1012 1391.5 1012 1265 1012C1157.47 1012 1150.93 1027.53 1049.95 1012C1024.43 1008.07 1037.64 978.56 1012 973.08C892.17 947.49 874.4 935.07 759 949.86C722.6 954.53 744.28 1003.19 708.4 1012C617.78 1034.26 607.2 1012 506 1012C379.5 1012 379.5 1012 253 1012C154 1012 101.04 1067.5 55 1012C-3.89 941 64.13 880.59 43.13 759C36.63 721.38 6.35 730.85 0 693.57C-15.21 604.35 0 599.79 0 506C0 379.5 0 379.5 0 253C0 126.5 -63.25 63.25 0 0C63.25 -63.25 126.5 0 253 0" stroke="rgba(170, 75, 174, 1)" stroke-width="2"></path><path d="M1518 191.16C1420.89 191.16 1303.92 212.29 1303.92 253C1303.92 296.73 1429.87 360.04 1518 360.04C1561.32 360.04 1566.82 303.57 1566.82 253C1566.82 219.13 1552.34 191.16 1518 191.16" stroke="rgba(170, 75, 174, 1)" stroke-width="2"></path><path d="M1771 432.05C1704.4 432.05 1629.62 459.74 1629.62 506C1629.62 561.67 1707.99 635.92 1771 635.92C1822.38 635.92 1858.4 564.88 1858.4 506C1858.4 462.95 1818.79 432.05 1771 432.05" stroke="rgba(170, 75, 174, 1)" stroke-width="2"></path><path d="M0 0C68.68 -24.65 116.47 129.56 253 162.18C369.47 190 392.91 95.31 506 120.88C593.73 140.72 591.08 177.85 654.64 253C717.58 327.4 700.76 341.21 759 419.98C794.3 467.71 802.66 460.94 841.71 506C929.16 606.91 914.92 625.06 1012 711.93C1056.28 751.56 1124.44 734.45 1124.44 759C1124.44 783.94 1071.8 797.83 1012 810.9C889.08 837.77 863.94 785.32 759 838.89C666.96 885.87 702.27 954.37 618.04 1012C575.77 1040.92 562.02 1012 506 1012C379.5 1012 379.5 1012 253 1012C222.75 1012 205.34 1035.54 192.5 1012C136.34 909.04 168.78 878.42 115 759C72.53 664.68 41.8 676.47 0 584.52C-15.7 549.97 0 545.26 0 506C0 379.5 0 379.5 0 253C0 126.5 -57.82 20.76 0 0" stroke="rgba(170, 75, 174, 1)" stroke-width="2"></path><path d="M1265 20.24C1253.79 18.1 1252.95 6.7 1252.95 0C1252.95 -3.42 1258.97 0 1265 0C1391.5 0 1391.5 0 1518 0C1612.88 0 1707.75 -12.43 1707.75 0C1707.75 12.87 1614.35 46.2 1518 50.6C1392.98 56.32 1386.31 43.4 1265 20.24" stroke="rgba(170, 75, 174, 1)" stroke-width="2"></path><path d="M1677.79 253C1677.79 153.04 1716.61 136.55 1771 31.63C1782.19 10.05 1785.32 2.95 1808.95 0C1911.82 -12.86 1973.07 -56.59 2024 0C2080.59 62.88 2029.34 121.38 2024 238.94C2023.59 247.88 2020.91 249.81 2012.5 253C1894.41 297.71 1883.6 334.74 1771 334.74C1716.25 334.74 1677.79 304.59 1677.79 253" stroke="rgba(170, 75, 174, 1)" stroke-width="2"></path><path d="M1148.23 506C1148.23 430.52 1197.97 362.79 1265 362.79C1351.23 362.79 1391.61 412.86 1454.75 506C1518.11 599.46 1477.24 627.32 1518 736C1524.68 753.82 1530.94 754.11 1549.63 759C1657.44 787.21 1667.05 802.2 1771 802.2C1798.82 802.2 1796.19 783.85 1813.17 759C1897.39 635.75 1914.6 641.25 1973.4 506C2020.01 398.79 2011.2 274.08 2024 274.08C2036.5 274.08 2024 390.04 2024 506C2024 632.5 2024 632.5 2024 759C2024 827.12 2050.69 838.29 2024 895.23C1991.39 964.79 1975.39 979.7 1905.41 1012C1848.89 1038.09 1838.2 1012 1771 1012C1644.5 1012 1644.5 1012 1518 1012C1391.5 1012 1391.5 1012 1265 1012C1236.54 1012 1208.08 1029.99 1208.08 1012C1208.08 970.07 1217.23 934.28 1265 892.16C1360.69 807.78 1495 810.75 1495 759C1495 712.55 1354.65 761.16 1265 695.75C1181.26 634.66 1148.23 597 1148.23 506" stroke="rgba(170, 75, 174, 1)" stroke-width="2"></path><path d="M337.33 253C396.6 195.05 427.54 191.16 506 191.16C546.66 191.16 554.44 212.69 575.57 253C636.94 370.11 688.48 389.47 671 506C653.69 621.38 587.48 610.67 506 716.83C490.39 737.17 476.81 735.92 476.81 759C476.81 799.17 497.24 799.79 506 843.33C522.68 926.29 527.69 937.2 527.69 1012C527.69 1021.54 516.85 1012 506 1012C468.05 1012 464.73 1025.11 430.1 1012C338.23 977.24 318.83 984.74 253 916.27C197.22 858.24 205.35 841.36 186.88 759C159.35 636.23 138.18 616.61 161 506C171.24 456.38 221.36 483.93 253 438.53C309.52 357.43 270.1 318.74 337.33 253" stroke="rgba(170, 75, 174, 1)" stroke-width="2"></path><path d="M1245.54 506C1245.54 493.42 1253.83 482.13 1265 482.13C1279.37 482.13 1296.63 492.96 1296.63 506C1296.63 520.71 1278.96 537.63 1265 537.63C1253.41 537.63 1245.54 521.17 1245.54 506" stroke="rgba(170, 75, 174, 1)" stroke-width="2"></path><path d="M1963.76 759C1963.76 713.63 2007.88 653.58 2024 653.58C2038 653.58 2024 706.29 2024 759C2024 778.46 2034.6 797.92 2024 797.92C2004.48 797.92 1963.76 785.8 1963.76 759" stroke="rgba(170, 75, 174, 1)" stroke-width="2"></path><path d="M1628.69 1012C1628.69 997.62 1708.88 956.46 1771 956.46C1797.82 956.46 1806.58 993.96 1806.58 1012C1806.58 1021.73 1788.79 1012 1771 1012C1699.85 1012 1628.69 1025.39 1628.69 1012" stroke="rgba(170, 75, 174, 1)" stroke-width="2"></path></g><defs><mask id="SvgjsMask1006"><rect width="2000" height="1010" fill="#ffffff"></rect></mask></defs></svg>