<!DOCTYPE svg PUBLIC "-//W3C//DTD SVG 1.1//EN" "http://www.w3.org/Graphics/SVG/1.1/DTD/svg11.dtd">
<!-- Uploaded to: SVG Repo, www.svgrepo.com, Transformed by: SVG Repo Mixer Tools -->
<svg fill="#ffffff" width="800px" height="800px" viewBox="0 0 24 24" id="Layer_1" version="1.1" xml:space="preserve" xmlns="http://www.w3.org/2000/svg" xmlns:xlink="http://www.w3.org/1999/xlink" stroke="#ffffff" stroke-width="0.00024000000000000003">
<g id="SVGRepo_bgCarrier" stroke-width="0"/>
<g id="SVGRepo_tracerCarrier" stroke-linecap="round" stroke-linejoin="round"/>
<g id="SVGRepo_iconCarrier">
<path d="M12,2C6.49,2,2,6.49,2,12c0,1.56,0.35,3.06,1.04,4.45c0.25,0.49,0.84,0.7,1.34,0.45c0.49-0.25,0.7-0.85,0.45-1.34 C4.28,14.45,4,13.25,4,12c0-4.41,3.59-8,8-8s8,3.59,8,8s-3.59,8-8,8c-1.25,0-2.45-0.28-3.56-0.83c-0.5-0.25-1.09-0.04-1.34,0.45 s-0.04,1.09,0.45,1.34C8.94,21.65,10.44,22,12,22c5.51,0,10-4.49,10-10C22,6.49,17.51,2,12,2z"/>
<path d="M10.33,16.72c-0.52-0.18-1.09,0.09-1.28,0.61c-0.18,0.52,0.09,1.09,0.61,1.28C10.41,18.87,11.2,19,12,19c3.86,0,7-3.14,7-7 c0-3.86-3.14-7-7-7s-7,3.14-7,7c0,0.8,0.13,1.58,0.4,2.33c0.18,0.52,0.76,0.79,1.28,0.61c0.52-0.18,0.79-0.75,0.61-1.28 C7.1,13.13,7,12.57,7,12c0-2.76,2.24-5,5-5s5,2.24,5,5s-2.24,5-5,5C11.43,17,10.87,16.9,10.33,16.72z"/>
<path d="M3,18c-0.55,0-1,0.45-1,1s0.45,1,1,1h1v1c0,0.55,0.45,1,1,1s1-0.45,1-1v-1.59l6.71-6.71c0.39-0.39,0.39-1.02,0-1.41 s-1.02-0.39-1.41,0L4.59,18H3z"/>
<path d="M12.67,13.89c-0.52,0.18-0.79,0.75-0.61,1.28c0.15,0.41,0.53,0.67,0.94,0.67c0.11,0,0.22-0.02,0.33-0.06 C14.93,15.21,16,13.69,16,12c0-2.21-1.79-4-4-4c-1.69,0-3.21,1.07-3.77,2.67c-0.18,0.52,0.09,1.09,0.61,1.28 c0.52,0.19,1.09-0.09,1.28-0.61C10.4,10.54,11.15,10,12,10c1.1,0,2,0.9,2,2C14,12.85,13.46,13.6,12.67,13.89z"/>
</g>
</svg>